<svg xmlns="http://www.w3.org/2000/svg" viewBox="0 0 24 24"><defs><style>.cls-1{fill:none;}.cls-2{fill:#1576ea;}</style></defs><title>Anchor</title><g id="Layer_2" data-name="Layer 2"><g id="Anchor"><rect class="cls-1" width="24" height="24"/><path class="cls-2" d="M12,4.73a.94.94,0,0,1,1,.89,1,1,0,0,1-2,0,.94.94,0,0,1,1-.89M12,4a1.7,1.7,0,0,0-1.76,1.62A1.69,1.69,0,0,0,12,7.23a1.69,1.69,0,0,0,1.77-1.61A1.7,1.7,0,0,0,12,4Z"/><path class="cls-2" d="M12,18.87a.75.75,0,0,1-.78-.73V7.47a.78.78,0,0,1,1.56,0V18.14A.75.75,0,0,1,12,18.87Z"/><path class="cls-2" d="M12,20c-3.08,0-5.58-1.92-5.58-4.29a.78.78,0,0,1,1.56,0c0,1.56,1.8,2.84,4,2.84s4-1.28,4-2.84a.78.78,0,0,1,1.56,0C17.58,18.08,15.07,20,12,20Z"/><path class="cls-2" d="M16,9.28H8.05a.73.73,0,1,1,0-1.45H16a.73.73,0,1,1,0,1.45Z"/><path class="cls-2" d="M5.78,17.75l-.21,0a.73.73,0,0,1-.54-.9l.57-1.92a.76.76,0,0,1,.94-.51L8.82,15a.73.73,0,0,1,.56.88.78.78,0,0,1-1,.52L6.89,16l-.36,1.24A.78.78,0,0,1,5.78,17.75Z"/><path class="cls-2" d="M18.22,17.75a.78.78,0,0,1-.75-.53L17.11,16l-1.54.37a.78.78,0,0,1-1-.52.73.73,0,0,1,.56-.88l2.28-.55a.76.76,0,0,1,.94.51L19,16.83a.73.73,0,0,1-.54.9Z"/></g></g></svg>